<svg xmlns="http://www.w3.org/2000/svg" xmlns:xlink="http://www.w3.org/1999/xlink" viewBox="0 0 567.3 189.63"><defs><path id="a" d="M45.2.11c-1.74 0-3.45 0-5.19.01-1.45.01-2.89.04-4.35.06-3.19.04-6.36.32-9.5.84-3.14.53-6.18 1.53-9.02 2.97a30.572 30.572 0 00-7.67 5.59 29.792 29.792 0 00-5.59 7.68 31.288 31.288 0 00-2.96 9.03C.39 29.42.11 32.6.07 35.78.03 37.23.02 38.69 0 40.14v109.58c.02 1.47.03 2.9.07 4.37.04 3.18.32 6.36.85 9.49.52 3.15 1.52 6.19 2.96 9.03 1.44 2.84 3.33 5.42 5.59 7.65a29.51 29.51 0 007.67 5.59c2.84 1.44 5.88 2.45 9.02 2.99 3.14.52 6.31.8 9.5.84 1.46.03 2.9.05 4.35.05 1.74.01 3.45.01 5.19.01h476.92c1.71 0 3.44 0 5.14-.01 1.45 0 2.93-.02 4.37-.05 3.18-.04 6.35-.32 9.48-.84 3.15-.54 6.2-1.55 9.05-2.99 2.84-1.44 5.43-3.33 7.67-5.59 2.26-2.24 4.15-4.82 5.6-7.65 1.43-2.84 2.42-5.89 2.93-9.03.53-3.13.83-6.31.88-9.49.02-1.47.02-2.9.02-4.37.04-1.72.04-3.43.04-5.18V45.32c0-1.74 0-3.46-.04-5.18 0-1.45 0-2.91-.02-4.36-.05-3.18-.35-6.36-.88-9.49-.51-3.14-1.5-6.18-2.93-9.03a30.702 30.702 0 00-13.27-13.27c-2.85-1.43-5.9-2.44-9.05-2.97-3.13-.52-6.3-.8-9.48-.84-1.44-.02-2.92-.05-4.37-.06-1.7-.01-3.43-.01-5.14-.01H45.2z"/><path id="b" d="M40.75 185.59c-1.45 0-2.86-.02-4.29-.05-2.97-.04-5.93-.3-8.86-.78-2.73-.47-5.38-1.34-7.85-2.59a25.614 25.614 0 01-6.63-4.82 25.637 25.637 0 01-4.84-6.62 27.356 27.356 0 01-2.57-7.86c-.49-2.94-.75-5.91-.79-8.89-.03-1-.07-4.33-.07-4.33V40.14s.04-3.28.07-4.24c.04-2.98.3-5.94.79-8.88.45-2.74 1.32-5.4 2.57-7.88 1.24-2.45 2.86-4.69 4.82-6.62 1.94-1.96 4.19-3.59 6.64-4.85 2.47-1.25 5.11-2.12 7.84-2.58 2.94-.48 5.91-.74 8.89-.78.29 0 1.71-.02 4.28-.06h487.2c2.6.04 4.04.06 4.33.06 2.95.04 5.9.3 8.81.78 2.76.46 5.43 1.34 7.92 2.59 4.92 2.54 8.93 6.55 11.45 11.48 1.24 2.46 2.09 5.09 2.54 7.81.49 2.96.77 5.95.82 8.95.02 1.34.02 2.78.02 4.22.03 1.78.03 3.47.03 5.17v99.22c0 1.72 0 3.4-.03 5.1 0 1.54 0 2.95-.02 4.41-.06 2.94-.33 5.88-.81 8.78-.44 2.76-1.31 5.43-2.56 7.92a25.956 25.956 0 01-4.82 6.57c-1.93 1.96-4.17 3.6-6.63 4.85a27.63 27.63 0 01-7.91 2.6c-2.93.48-5.89.74-8.86.78-1.39.03-2.84.05-4.25.05-.35 0-2.06 0-5.14.01-257.12-.01-417.81-.01-482.09-.01z"/><path id="c" d="M128.6 76.67a24.053 24.053 0 00-18.93-10.23C101.71 65.6 94 71.2 89.94 71.2c-4.14 0-10.38-4.68-17.11-4.54-8.85.29-16.9 5.2-21.2 12.93-9.17 15.88-2.33 39.21 6.45 52.04 4.39 6.28 9.53 13.3 16.25 13.05 6.58-.27 9.03-4.19 16.97-4.19 7.86 0 10.17 4.19 17.02 4.03 7.06-.11 11.5-6.31 15.74-12.65 3.16-4.48 5.59-9.43 7.2-14.66a22.683 22.683 0 01-13.84-20.86c.11-8.04 4.32-15.47 11.18-19.68z"/><path id="d" d="M109.76 41.45c-5.88.62-11.31 3.43-15.21 7.87a21.969 21.969 0 00-5.42 15.94A19.43 19.43 0 00104.47 58a23.084 23.084 0 005.29-16.55z"/><path id="e" d="M200.55 128.77h-22.44l-5.39 15.92h-9.51l21.26-58.88h9.87l21.26 58.88h-9.67l-5.38-15.92zm-20.12-7.34h17.79l-8.77-25.82h-.25l-8.77 25.82z"/><path id="f" d="M243.59 145.13a14.54 14.54 0 01-13.51-7.5h-.2v21.25h-8.81v-57.12h8.53v7.14h.16c2.81-4.85 8.06-7.77 13.67-7.58 10.89 0 18.07 8.61 18.07 21.91 0 13.34-7.14 21.9-17.91 21.9zm-2.49-36.31c-6.73 0-11.26 5.84-11.26 14.41 0 8.65 4.53 14.44 11.26 14.44 6.85 0 11.34-5.67 11.34-14.44 0-8.69-4.49-14.41-11.34-14.41z"/><path id="g" d="M290.83 145.13a14.54 14.54 0 01-13.51-7.5h-.2v21.25h-8.81v-57.12h8.53v7.14h.16c2.81-4.85 8.06-7.77 13.67-7.58 10.89 0 18.07 8.61 18.07 21.91 0 13.34-7.14 21.9-17.91 21.9zm-2.49-36.31c-6.73 0-11.26 5.84-11.26 14.41 0 8.65 4.53 14.44 11.26 14.44 6.85 0 11.34-5.67 11.34-14.44 0-8.69-4.49-14.41-11.34-14.41z"/><path id="h" d="M339.96 128.28c.66 5.84 6.33 9.67 14.08 9.67 7.42 0 12.77-3.83 12.77-9.09 0-4.57-3.23-7.31-10.86-9.18-.76-.19-6.86-1.66-7.63-1.84-10.81-2.61-15.82-7.67-15.82-15.87 0-10.16 8.85-17.14 21.42-17.14 12.44 0 20.96 6.98 21.25 17.14h-8.89c-.53-5.88-5.39-9.42-12.49-9.42-7.1 0-11.95 3.58-11.95 8.81 0 4.16 3.1 6.61 10.69 8.48.65.16 5.84 1.44 6.48 1.6 12.08 2.85 17.1 7.7 17.1 16.31 0 11.02-8.77 17.92-22.73 17.92-13.05 0-21.87-6.74-22.44-17.39h9.02z"/><path id="i" d="M395.13 91.61v10.15h8.16v6.98h-8.16v23.66c0 3.68 1.63 5.39 5.22 5.39.97-.02 1.93-.08 2.9-.2v6.93c-1.62.3-3.26.44-4.9.41-8.69 0-12.08-3.26-12.08-11.59v-24.6h-6.24v-6.98h6.24V91.61h8.86z"/><path id="j" d="M428.37 101.24c12.45 0 20.36 8.48 20.36 21.99 0 13.54-7.87 21.99-20.36 21.99-12.48 0-20.36-8.45-20.36-21.99 0-13.51 7.96-21.99 20.36-21.99zm0 7.26c-7.14 0-11.38 5.5-11.38 14.73 0 9.3 4.24 14.72 11.38 14.72 7.14 0 11.39-5.42 11.39-14.72 0-9.27-4.25-14.73-11.39-14.73z"/><path id="k" d="M456 101.76h8.4v7.31h.2a10.25 10.25 0 0110.33-7.76c1.01 0 2.02.11 3.02.33v8.24c-1.29-.39-2.62-.57-3.96-.53-4.9-.2-9.03 3.61-9.23 8.51-.02.46-.01.91.05 1.37v25.46H456v-42.93z"/><path id="l" d="M518.57 132.08c-1.19 7.79-8.78 13.14-18.49 13.14-12.48 0-20.23-8.37-20.23-21.79 0-13.46 7.79-22.19 19.86-22.19 11.88 0 19.35 8.15 19.35 21.17v3.02h-30.32v.53c-.54 6.15 4 11.58 10.15 12.12.47.04.93.05 1.4.04 4.27.4 8.3-2.06 9.91-6.04h8.37zm-8.33-12.81c.32-5.69-4.04-10.56-9.73-10.88-.27-.02-.53-.02-.8-.01-6-.04-10.89 4.8-10.93 10.8v.09h21.46z"/><path id="m" d="M179.33 41.5c6.89-.49 12.88 4.7 13.37 11.59.06.82.04 1.65-.06 2.47 0 9.04-4.89 14.23-13.31 14.23h-10.22V41.5h10.22zm-5.83 24.29h5.33c4.91.29 9.12-3.44 9.41-8.35.04-.61.01-1.22-.08-1.82.67-4.88-2.74-9.38-7.62-10.05a8.87 8.87 0 00-1.71-.07h-5.33v20.29z"/><path id="n" d="M206.7 48.08c5.56-.54 10.5 3.54 11.03 9.1.06.64.06 1.29 0 1.93.54 5.56-3.52 10.5-9.08 11.04-5.56.55-10.51-3.52-11.05-9.08-.06-.65-.06-1.31 0-1.96-.53-5.56 3.54-10.5 9.1-11.03zm.97 3.69c-3.66 0-5.72 2.71-5.72 7.34 0 4.66 2.06 7.35 5.72 7.35 3.65 0 5.73-2.71 5.73-7.35 0-4.63-2.08-7.34-5.73-7.34z"/><path id="o" d="M244.5 69.79h-4.37l-4.42-15.72h-.33l-4.39 15.72h-4.33l-5.89-21.35h4.28l3.82 16.29h.32l4.39-16.29h4.04l4.39 16.29h.33l3.81-16.29h4.21l-5.86 21.35z"/><path id="p" d="M255.31 48.44h4.05v3.39h.32a6.392 6.392 0 016.37-3.8c3.82-.29 7.15 2.58 7.44 6.4.04.52.02 1.03-.05 1.54v13.82h-4.22V57.03c0-3.43-1.49-5.14-4.6-5.14-2.7-.12-5 1.96-5.12 4.67-.01.24-.01.49.02.74v12.49h-4.21V48.44z"/><path id="q" d="M280.15 40.11h4.21v29.68h-4.21V40.11z"/><path id="r" d="M299.33 48.08c5.56-.54 10.49 3.54 11.03 9.1.06.64.06 1.29 0 1.93.54 5.56-3.53 10.5-9.09 11.04-5.56.55-10.51-3.52-11.05-9.08-.06-.66-.06-1.31 0-1.96-.53-5.56 3.54-10.5 9.11-11.03zm.96 3.69c-3.66 0-5.72 2.71-5.72 7.34 0 4.66 2.06 7.35 5.72 7.35 3.65 0 5.73-2.71 5.73-7.35 0-4.63-2.08-7.34-5.73-7.34z"/><path id="s" d="M322.73 57.38c.39-.02 2.31-.13 5.78-.33V55.2c0-2.25-1.49-3.52-4.37-3.52-2.35 0-3.98.86-4.45 2.37h-4.07c.43-3.67 3.88-6.02 8.72-6.02 5.35 0 8.37 2.66 8.37 7.17v14.59h-4.06v-3h-.33a7.187 7.187 0 01-6.41 3.35c-3.55.37-6.72-2.2-7.08-5.75a4.49 4.49 0 01-.04-.64c0-3.84 2.86-6.06 7.94-6.37zm5.78 2.76c-3.12.2-4.86.31-5.21.34-2.94.19-4.27 1.19-4.27 3.08 0 1.92 1.66 3.04 3.96 3.04 2.76.28 5.23-1.74 5.51-4.5.01-.06.01-.12.01-.17v-1.79z"/><path id="t" d="M347.11 48.09a7.017 7.017 0 016.54 3.74h.32V40.11h4.21v29.68h-4.04v-3.37h-.33a7.41 7.41 0 01-6.7 3.72c-5.43 0-8.86-4.27-8.86-11.03 0-6.75 3.46-11.02 8.86-11.02zm1.19 18.27c3.55 0 5.75-2.76 5.75-7.23 0-4.45-2.22-7.26-5.75-7.26-3.55 0-5.7 2.75-5.7 7.24 0 4.52 2.13 7.25 5.7 7.25z"/><path id="u" d="M384.72 48.08c5.56-.54 10.49 3.54 11.03 9.1.06.64.06 1.29 0 1.93.54 5.56-3.53 10.5-9.09 11.04-5.56.55-10.51-3.52-11.05-9.08-.06-.65-.06-1.31 0-1.96-.53-5.56 3.55-10.5 9.11-11.03zm.97 3.69c-3.67 0-5.73 2.71-5.73 7.34 0 4.66 2.06 7.35 5.73 7.35 3.64 0 5.72-2.71 5.72-7.35 0-4.63-2.08-7.34-5.72-7.34z"/><path id="v" d="M401.4 48.44h4.05v3.39h.32a6.392 6.392 0 016.37-3.8c3.82-.29 7.16 2.58 7.44 6.4.04.52.02 1.03-.05 1.54v13.82h-4.21V57.03c0-3.43-1.5-5.14-4.61-5.14a4.904 4.904 0 00-5.1 5.41v12.49h-4.21V48.44z"/><path id="w" d="M443.33 43.13v5.41h4.63v3.55h-4.63v10.98c0 2.23.93 3.21 3.02 3.21.54 0 1.08-.03 1.61-.1v3.51c-.76.14-1.52.21-2.29.22-4.69 0-6.55-1.65-6.55-5.77V52.09h-3.39v-3.55h3.39v-5.41h4.21z"/><path id="x" d="M453.71 40.11h4.18v11.76h.33a6.572 6.572 0 016.51-3.82c3.88-.21 7.2 2.76 7.41 6.64.02.44 0 .88-.06 1.32v13.78h-4.21V57.05c0-3.41-1.59-5.14-4.57-5.14-2.74-.23-5.15 1.82-5.38 4.56-.02.29-.02.57.01.85v12.47h-4.22V40.11z"/><path id="y" d="M496.65 64.03a8.671 8.671 0 01-9.25 6.17c-5.35.14-9.81-4.08-9.95-9.44-.01-.52.02-1.05.09-1.58-.72-5.39 3.06-10.34 8.45-11.06.46-.06.93-.09 1.39-.09 5.94 0 9.52 4.06 9.52 10.76v1.47h-15.07v.24a5.638 5.638 0 005.15 6.09c.18.02.36.03.53.02 2.07.25 4.07-.77 5.08-2.58h4.06zm-4.04-6.88a5.151 5.151 0 00-4.75-5.52c-.17-.01-.34-.02-.5-.01a5.455 5.455 0 00-5.53 5.39v.14h10.78z"/></defs><use fill="#36373a" xlink:href="#a"/><use fill-opacity="0" stroke="#000" stroke-opacity="0" xlink:href="#a"/><use fill="#202026" xlink:href="#b"/><use fill-opacity="0" stroke="#000" stroke-opacity="0" xlink:href="#b"/><use fill="#fff" xlink:href="#c"/><use fill-opacity="0" stroke="#000" stroke-opacity="0" xlink:href="#c"/><use fill="#fff" xlink:href="#d"/><use fill-opacity="0" stroke="#000" stroke-opacity="0" xlink:href="#d"/><use fill="#fff" xlink:href="#e"/><use fill-opacity="0" stroke="#000" stroke-opacity="0" xlink:href="#e"/><use fill="#fff" xlink:href="#f"/><use fill-opacity="0" stroke="#000" stroke-opacity="0" xlink:href="#f"/><use fill="#fff" xlink:href="#g"/><use fill-opacity="0" stroke="#000" stroke-opacity="0" xlink:href="#g"/><use fill="#fff" xlink:href="#h"/><use fill-opacity="0" stroke="#000" stroke-opacity="0" xlink:href="#h"/><use fill="#fff" xlink:href="#i"/><use fill-opacity="0" stroke="#000" stroke-opacity="0" xlink:href="#i"/><use fill="#fff" xlink:href="#j"/><use fill-opacity="0" stroke="#000" stroke-opacity="0" xlink:href="#j"/><use fill="#fff" xlink:href="#k"/><use fill-opacity="0" stroke="#000" stroke-opacity="0" xlink:href="#k"/><use fill="#fff" xlink:href="#l"/><use fill-opacity="0" stroke="#000" stroke-opacity="0" xlink:href="#l"/><use fill="#fff" xlink:href="#m"/><use fill-opacity="0" stroke="#000" stroke-opacity="0" xlink:href="#m"/><g><use fill="#fff" xlink:href="#n"/><use fill-opacity="0" stroke="#000" stroke-opacity="0" xlink:href="#n"/></g><g><use fill="#fff" xlink:href="#o"/><use fill-opacity="0" stroke="#000" stroke-opacity="0" xlink:href="#o"/></g><g><use fill="#fff" xlink:href="#p"/><use fill-opacity="0" stroke="#000" stroke-opacity="0" xlink:href="#p"/></g><g><use fill="#fff" xlink:href="#q"/><use fill-opacity="0" stroke="#000" stroke-opacity="0" xlink:href="#q"/></g><g><use fill="#fff" xlink:href="#r"/><use fill-opacity="0" stroke="#000" stroke-opacity="0" xlink:href="#r"/></g><g><use fill="#fff" xlink:href="#s"/><use fill-opacity="0" stroke="#000" stroke-opacity="0" xlink:href="#s"/></g><g><use fill="#fff" xlink:href="#t"/><use fill-opacity="0" stroke="#000" stroke-opacity="0" xlink:href="#t"/></g><g><use fill="#fff" xlink:href="#u"/><use fill-opacity="0" stroke="#000" stroke-opacity="0" xlink:href="#u"/></g><g><use fill="#fff" xlink:href="#v"/><use fill-opacity="0" stroke="#000" stroke-opacity="0" xlink:href="#v"/></g><g><use fill="#fff" xlink:href="#w"/><use fill-opacity="0" stroke="#000" stroke-opacity="0" xlink:href="#w"/></g><g><use fill="#fff" xlink:href="#x"/><use fill-opacity="0" stroke="#000" stroke-opacity="0" xlink:href="#x"/></g><g><use fill="#fff" xlink:href="#y"/><use fill-opacity="0" stroke="#000" stroke-opacity="0" xlink:href="#y"/></g></svg>
