<svg xmlns="http://www.w3.org/2000/svg" xmlns:xlink="http://www.w3.org/1999/xlink" viewBox="0 0 640 189.63"><defs><path id="a" d="M613.3 189.64H20.7c-13.03 0-23.7-10.67-23.7-23.7V23.7C-3 10.67 7.67 0 20.7 0h592.6C626.33 0 637 10.67 637 23.7v142.24c0 13.03-10.67 23.7-23.7 23.7"/><path id="b" d="M616.3 0H23.7C10.67 0 0 10.67 0 23.7v142.24c0 13.03 10.67 23.7 23.7 23.7h592.6c13.03 0 23.7-10.67 23.7-23.7V23.7C640 10.67 629.33 0 616.3 0m0 3.79c10.98 0 19.91 8.94 19.91 19.91v142.24c0 10.98-8.93 19.91-19.91 19.91H23.7c-10.97 0-19.91-8.93-19.91-19.91V23.7c0-10.97 8.94-19.91 19.91-19.91h592.6"/><path id="c" d="M224.8 48.56c0 3.98-1.18 7.14-3.53 9.5-2.68 2.8-6.17 4.21-10.45 4.21-4.11 0-7.6-1.42-10.47-4.27-2.88-2.85-4.31-6.38-4.31-10.59s1.43-7.74 4.31-10.59c2.87-2.85 6.36-4.27 10.47-4.27 2.03 0 3.98.4 5.84 1.19 1.85.8 3.33 1.86 4.44 3.18l-2.5 2.5c-1.88-2.25-4.47-3.37-7.78-3.37-3 0-5.59 1.05-7.77 3.16-2.19 2.1-3.28 4.84-3.28 8.2 0 3.36 1.09 6.1 3.28 8.2 2.18 2.11 4.77 3.16 7.77 3.16 3.17 0 5.82-1.06 7.94-3.17 1.38-1.38 2.17-3.3 2.39-5.77h-10.33v-3.41h13.78c.13.74.2 1.45.2 2.14"/><path id="d" d="M224.8 48.56h-.48c0 3.89-1.13 6.9-3.39 9.16v.01h-.01c-2.59 2.71-5.92 4.06-10.1 4.06-4 0-7.34-1.36-10.14-4.13-2.78-2.77-4.16-6.15-4.17-10.25.01-4.11 1.39-7.48 4.17-10.25 2.8-2.77 6.14-4.13 10.14-4.14 1.97 0 3.85.39 5.65 1.16 1.79.77 3.21 1.79 4.27 3.05.02-.02.15-.13.36-.31l-.33-.33-2.5 2.5.33.33c.22-.18.34-.28.37-.3-1.97-2.36-4.74-3.55-8.15-3.55-3.11 0-5.84 1.11-8.1 3.3-2.28 2.19-3.43 5.07-3.42 8.54-.01 3.47 1.14 6.35 3.42 8.54 2.26 2.19 4.99 3.3 8.1 3.3 3.28 0 6.07-1.11 8.28-3.32 1.47-1.47 2.3-3.52 2.52-6.06 0-.03.02-.2.04-.51h-10.37v-2.47h13.31v-.47c-.28.05-.44.08-.47.08.13.72.19 1.4.19 2.06h.95c0-.72-.06-1.46-.2-2.23-.01-.02-.03-.15-.07-.39h-14.66v4.37h10.81v-.48c-.29-.02-.44-.03-.48-.04-.21 2.39-.96 4.19-2.24 5.47-2.04 2.03-4.54 3.03-7.61 3.04-2.89-.01-5.33-1-7.44-3.03-2.09-2.02-3.13-4.6-3.14-7.86.01-3.26 1.05-5.84 3.14-7.86 2.11-2.03 4.55-3.02 7.44-3.03 3.2.01 5.62 1.07 7.42 3.21.02.02.13.16.33.39l2.87-2.86.31-.31c-.17-.2-.26-.31-.28-.33-1.17-1.39-2.72-2.49-4.63-3.31-1.91-.82-3.93-1.23-6.02-1.23-4.22-.01-7.86 1.47-10.81 4.41-2.96 2.92-4.45 6.6-4.44 10.92-.01 4.32 1.48 8 4.45 10.93 2.94 2.93 6.58 4.41 10.8 4.4 4.39.01 8.03-1.45 10.79-4.35-.02-.03-.14-.13-.34-.33l.33.33c2.46-2.45 3.68-5.76 3.67-9.83h-.47"/><path id="e" d="M246.65 36.68H233.7v9.02h11.68v3.42H233.7v9.02h12.95v3.49h-16.61V33.19h16.61v3.49"/><path id="f" d="M246.65 36.68v-.47h-13.43v9.96h11.68v2.47l-11.68.01v9.96h12.96v2.55h-15.66v-27.5h15.66v3.02h.47v-.47.47h.47v-3.97h-17.55v29.4h17.55v-4.45h-12.95v-8.07h11.68v-4.36h-11.68v-8.07h12.95v-.48h-.47"/><path id="g" d="M262.06 61.63h-3.65V36.68h-7.95v-3.49h19.55v3.49h-7.95v24.95"/><path id="h" d="M262.06 61.63v-.47h-3.18V36.21h-7.95v-2.55h18.6v2.55h-7.94v25.42h.47v-.47.47h.48V37.16h7.94v-4.45h-20.49v4.45h7.94v24.95H262.54v-.48h-.48"/><path id="i" d="M284.15 61.63V33.19h3.65v28.44h-3.65"/><path id="j" d="M284.15 61.63h.47V33.66h2.71v27.5h-3.18v.47h.47-.47v.48h4.13v-29.4h-4.6v29.4h.47v-.48"/><path id="k" d="M304.02 61.63h-3.66V36.68h-7.94v-3.49h19.54v3.49h-7.94v24.95"/><path id="l" d="M304.02 61.63v-.47h-3.19V36.21h-7.94v-2.55h18.6v2.55h-7.95v25.42h.48v-.47.47h.47V37.16h7.95v-4.45h-20.5v4.45h7.95v24.95h4.6v-.48h-.47"/><path id="m" d="M338.53 58.77c3.05 0 5.63-1.06 7.73-3.19 2.11-2.14 3.16-4.86 3.16-8.17 0-3.31-1.05-6.03-3.16-8.17-2.1-2.13-4.68-3.19-7.73-3.19-3.04 0-5.62 1.06-7.72 3.19-2.11 2.14-3.16 4.86-3.16 8.17 0 3.31 1.05 6.03 3.16 8.17 2.1 2.13 4.68 3.19 7.72 3.19zm10.43-.81c-2.79 2.87-6.27 4.31-10.43 4.31s-7.63-1.44-10.42-4.31c-2.8-2.88-4.19-6.39-4.19-10.55 0-4.16 1.39-7.67 4.19-10.55 2.79-2.87 6.26-4.31 10.42-4.31 4.14 0 7.61 1.44 10.41 4.33 2.81 2.89 4.21 6.4 4.21 10.53 0 4.16-1.4 7.67-4.19 10.55"/><path id="n" d="M330.81 55.58c-.21.2-.32.31-.34.33 2.18 2.22 4.91 3.34 8.06 3.34 3.16 0 5.89-1.12 8.07-3.34 2.19-2.22 3.3-5.09 3.3-8.5s-1.11-6.28-3.3-8.5c-2.18-2.22-4.91-3.34-8.07-3.34-3.15 0-5.88 1.12-8.06 3.34-2.19 2.22-3.3 5.09-3.3 8.5s1.11 6.28 3.3 8.5c.02-.02.13-.13.34-.33.2-.2.31-.32.33-.34-2.01-2.04-3.01-4.62-3.02-7.83.01-3.21 1.01-5.79 3.02-7.83 2.03-2.05 4.46-3.05 7.39-3.06 2.94.01 5.37 1.01 7.39 3.06 2.02 2.04 3.02 4.62 3.03 7.83-.01 3.21-1.01 5.79-3.03 7.83-2.02 2.05-4.45 3.05-7.39 3.06-2.93-.01-5.36-1.01-7.39-3.06-.04.05-.15.16-.33.34zm18.15 2.38c-.2-.2-.31-.31-.34-.33-2.71 2.78-6.04 4.16-10.09 4.16s-7.37-1.38-10.08-4.16l-.02-.02.02.02c-2.72-2.8-4.06-6.17-4.06-10.22 0-4.05 1.34-7.42 4.06-10.22 2.71-2.78 6.03-4.16 10.08-4.17 4.03.01 7.34 1.39 10.08 4.19 2.72 2.81 4.06 6.18 4.07 10.2-.01 4.05-1.35 7.42-4.06 10.22.03.02.14.13.34.33.21.19.32.3.34.33 2.88-2.96 4.33-6.62 4.33-10.88 0-4.24-1.46-7.89-4.35-10.86-2.88-2.97-6.5-4.48-10.75-4.47-4.26-.01-7.89 1.49-10.76 4.45-2.88 2.96-4.33 6.62-4.33 10.88 0 4.26 1.45 7.92 4.33 10.88l.01.01-.01-.01c2.87 2.96 6.5 4.46 10.76 4.45 4.27.01 7.9-1.49 10.77-4.45a3.62 3.62 0 00-.34-.33"/><path id="o" d="M358.28 61.63V33.19h4.45l13.83 22.13h.15l-.15-5.49V33.19h3.65v28.44h-3.81l-14.46-23.2h-.16l.16 5.49v17.71h-3.66"/><path id="p" d="M358.28 61.63h.48V33.66h3.71l13.82 22.13H377.2l-.17-5.96V33.66h2.71v27.5h-3.08l-14.46-23.2H361.29l.17 5.96v17.24h-3.18v.47h.48-.48v.48h4.13v-18.2l-.16-5.49-.47.01v.48h.16v-.48l-.41.25 14.61 23.43H380.69v-29.4H376.08v17.13l.16 5.49.47-.01v-.48h-.15v.48l.4-.26-13.97-22.35h-5.18v29.4h.47v-.48"/><path id="q" d="M506.96 142.23h8.84V82.96h-8.84v59.27zm79.67-37.92l-10.14 25.7h-.3l-10.52-25.7h-9.53l15.78 35.92-9 19.97h9.23l24.32-55.89h-9.84zm-57.1 26.15c0-4.57 5.03-6.32 9.37-6.32 3.9 0 5.72.84 8.09 1.98-.69 5.49-5.42 9.38-10.52 9.38-2.9 0-6.94-1.45-6.94-5.04zm-7.78-18.37c.79.33 7.07 2.95 7.85 3.28 1.68-3.28 4.8-4.35 8.09-4.35 4.57 0 9.22 2.75 9.3 7.63v.61c-1.61-.92-5.03-2.29-9.23-2.29-8.46 0-17.08 4.65-17.08 13.34 0 7.93 6.94 13.04 14.72 13.04 5.95 0 9.22-2.67 11.28-5.79h.31v4.57h8.53v-22.72c0-10.52-7.85-16.4-17.99-16.4-6.4 0-13.03 2.83-15.78 9.08zm-51.47-.56V91.21h12.58c6.62 0 10.37 5.48 10.37 10.16 0 4.59-3.75 10.16-10.37 10.16h-12.58zm-8.84-28.57v59.27h8.84v-22.45h12.36c9.8 0 19.44-7.1 19.44-18.41s-9.64-18.41-19.44-18.41h-21.2zm-105.62 40.4c0-7.1 5.12-12.29 11.23-12.29 6.04 0 10.77 5.19 10.77 12.29 0 7.03-4.73 12.15-10.77 12.15-6.11 0-11.23-5.12-11.23-12.15zm21.39-15.73h-.31c-1.98-2.37-5.8-4.51-10.61-4.51-10.08 0-19.33 8.86-19.33 20.24 0 11.31 9.25 20.09 19.33 20.09 4.81 0 8.63-2.14 10.61-4.58h.31v2.9c0 7.72-4.12 11.84-10.77 11.84-5.42 0-8.78-3.89-10.16-7.18l-7.71 3.21c2.21 5.35 8.09 11.92 17.87 11.92 10.39 0 19.17-6.12 19.17-21.01v-36.2h-8.4v3.28zm14.51 34.6h8.86V82.96h-8.86v59.27zm21.92-19.55c-.23-7.79 6.03-11.76 10.54-11.76 3.52 0 6.49 1.75 7.48 4.27-3.6 1.5-14.41 5.99-18.02 7.49zm27.5-6.72c-1.68-4.51-6.8-12.84-17.27-12.84-10.38 0-19.01 8.18-19.01 20.17 0 11.3 8.55 20.16 20.01 20.16 9.24 0 14.59-5.65 16.8-8.93-.69-.46-6.19-4.13-6.87-4.59-2.29 3.36-5.43 5.58-9.93 5.58-4.51 0-7.72-2.06-9.78-6.11 1.8-.74 10.78-4.46 26.96-11.15-.49-1.22-.79-1.99-.91-2.29zm-214.8-6.65v8.56h20.47c-.61 4.81-2.22 8.32-4.66 10.76-2.98 2.98-7.64 6.27-15.81 6.27-12.6 0-22.45-10.16-22.45-22.76 0-12.61 9.85-22.76 22.45-22.76 6.8 0 11.76 2.67 15.43 6.11.6-.61 5.43-5.43 6.03-6.04-5.11-4.89-11.91-8.63-21.46-8.63-17.26 0-31.77 14.06-31.77 31.32 0 17.26 14.51 31.31 31.77 31.31 9.32 0 16.35-3.05 21.84-8.78 5.66-5.65 7.41-13.6 7.41-20.01 0-1.99-.15-3.82-.46-5.35h-28.79zm41.14 13.98c0-7.26 5.27-12.22 11.38-12.22 6.11 0 11.38 4.96 11.38 12.22 0 7.18-5.27 12.22-11.38 12.22-6.11 0-11.38-5.04-11.38-12.22zm-8.86 0c0 11.61 9.09 20.16 20.24 20.16 11.15 0 20.24-8.55 20.24-20.16 0-11.69-9.09-20.17-20.24-20.17-11.15 0-20.24 8.48-20.24 20.17zm53.01 0c0-7.26 5.28-12.22 11.38-12.22 6.11 0 11.38 4.96 11.38 12.22 0 7.18-5.27 12.22-11.38 12.22-6.1 0-11.38-5.04-11.38-12.22zm11.38-20.17c-11.15 0-20.23 8.48-20.23 20.17 0 11.61 9.08 20.16 20.23 20.16s20.24-8.55 20.24-20.16c0-11.69-9.09-20.17-20.24-20.17"/><path id="r" d="M49.82 153.56c-.21-.2-.32-.32-.35-.34-1.38-1.46-2.19-3.72-2.19-6.66V42.4v-.03.72c0-3.18.95-5.57 2.54-7 3.91 3.91 23.49 23.49 58.74 58.73l-58.74 58.74M47.3 41.59v-.01.01m0-.03v-.01.01"/><path id="t" d="M128.13 115.1l.45-.25c13.92-7.91 21.65-12.3 23.19-13.18 2.22-1.26 3.69-2.78 4.42-4.39-.73 1.61-2.2 3.13-4.42 4.39-1.54.88-9.27 5.27-23.19 13.18l-.45.25m.01-.69l-19.58-19.59 19.58-19.58c14.18 8.06 22.06 12.54 23.63 13.43 3.01 1.71 4.69 3.91 4.97 6.15v.01c-.28 2.24-1.96 4.44-4.97 6.15-1.57.89-9.45 5.37-23.63 13.43"/><path id="v" d="M54.01 155.8c-1.64 0-3.07-.54-4.19-1.55 1.12 1.01 2.55 1.55 4.2 1.55.14 0 .28-.01.43-.02-.15.01-.3.02-.44.02m0-.7c-1.64 0-3.07-.53-4.19-1.54l58.74-58.74 19.58 19.59c-41.29 23.46-64.23 36.49-68.82 39.1-1.9 1.08-3.7 1.59-5.31 1.59m-4.2-.86c-.11-.09-.21-.19-.31-.3.02.02.12.12.31.3"/><path id="x" d="M108.56 94.82C73.31 59.58 53.73 40 49.82 36.09c1.11-1.01 2.54-1.54 4.18-1.54 1.61 0 3.42.51 5.32 1.59 4.59 2.61 27.53 15.64 68.82 39.1l-19.58 19.58m20.02-20.02C87.03 51.19 63.94 38.07 59.32 35.45c-1.9-1.08-3.71-1.6-5.32-1.6h-.02.03c1.61 0 3.41.51 5.31 1.6 4.62 2.62 27.71 15.74 69.26 39.35M53.97 33.85"/><path id="z" d="M54.45 155.78c1.49-.08 3.14-.59 4.87-1.58 4.59-2.6 27.53-15.64 68.81-39.1-41.28 23.46-64.22 36.5-68.81 39.1-1.73.99-3.38 1.5-4.87 1.58m-4.63-1.53c-.01 0-.01-.01-.01-.01 0 .01.01.01.01.01m-.32-.31l-.03-.03.03.03"/><path id="A" d="M128.13 115.1l.45-.25-.45.25"/><path id="C" d="M54.02 155.8c-1.65 0-3.08-.54-4.2-1.55 0 0-.01 0-.01-.01l-.31-.3-.03-.03c.04-.03.32-.31.35-.35 1.12 1.01 2.55 1.54 4.19 1.54 1.61 0 3.41-.51 5.31-1.59 4.59-2.61 27.53-15.64 68.82-39.1l.44.44-.45.25c-41.28 23.46-64.22 36.5-68.81 39.1-1.73.99-3.38 1.5-4.87 1.58-.15.01-.29.02-.43.02"/><path id="E" d="M49.47 153.91c-1.38-1.46-2.19-3.72-2.19-6.66 0 2.94.81 5.2 2.19 6.66"/><path id="F" d="M49.47 153.91c-1.38-1.46-2.19-3.72-2.19-6.66v-.69c0 2.94.81 5.2 2.19 6.66.03.02.14.14.35.34l-.35.35"/><path id="H" d="M49.47 153.91l.35-.35-.35.35"/><path id="J" d="M156.19 97.28a5.852 5.852 0 010 0"/><path id="K" d="M128.58 114.85l-.44-.44c14.18-8.06 22.06-12.54 23.63-13.43 3.01-1.71 4.69-3.91 4.97-6.15 0 .82-.18 1.65-.55 2.45-.73 1.61-2.2 3.13-4.42 4.39-1.54.88-9.27 5.27-23.19 13.18"/><path id="M" d="M156.74 94.82c0-2.48-1.66-4.96-4.97-6.84-1.54-.88-9.27-5.27-23.19-13.18 13.92 7.91 21.65 12.3 23.19 13.18 3.32 1.88 4.98 4.36 4.97 6.84"/><path id="N" d="M156.74 94.82c-.28-2.24-1.96-4.44-4.97-6.15-1.57-.89-9.45-5.37-23.63-13.43l.44-.44c13.92 7.91 21.65 12.3 23.19 13.18 3.31 1.88 4.97 4.36 4.97 6.84"/><path id="P" d="M47.300000000000004 41.599999999999994v-.01.01m0-.02v-.02.02m0-.03c.27-4.87 2.92-7.68 6.67-7.7-1.63.01-3.04.55-4.15 1.54-.01.01-.01.01-.01.02-.12.1-.23.21-.34.33-1.24 1.31-2.03 3.29-2.17 5.81"/><path id="Q" d="M47.28 43.09v-.69-.03c0-.26.01-.52.02-.77v-.01-.01-.02-.01c.14-2.52.93-4.5 2.17-5.81.21.21.33.32.35.35-1.59 1.43-2.54 3.82-2.54 7m2.53-7.68c.01-.01.01-.02.01-.02 0 .01-.01.01-.01.02"/><path id="S" d="M53.97 33.85h0"/><path id="T" d="M128.14 75.24c-41.29-23.46-64.23-36.49-68.82-39.1-1.9-1.08-3.71-1.59-5.32-1.59-1.64 0-3.07.53-4.18 1.54-.02-.03-.14-.14-.35-.35.11-.12.22-.23.34-.33 0-.01.01-.01.01-.02 1.11-.99 2.52-1.53 4.15-1.54H54c1.61 0 3.42.52 5.32 1.6 4.62 2.62 27.71 15.74 69.26 39.35l-.44.44"/><linearGradient id="s" x1="103.35" x2="23.79" y1="41.29" y2="120.86" gradientUnits="userSpaceOnUse"><stop offset="0%" stop-color="#00a0ff"/><stop offset=".657%" stop-color="#00a1ff"/><stop offset="26.01%" stop-color="#00beff"/><stop offset="51.22%" stop-color="#00d2ff"/><stop offset="76.04%" stop-color="#00dfff"/><stop offset="100%" stop-color="#00e3ff"/></linearGradient><linearGradient id="u" x1="160.4" x2="45.69" y1="94.83" y2="94.83" gradientUnits="userSpaceOnUse"><stop offset="0%" stop-color="#ffe000"/><stop offset="40.87%" stop-color="#ffbd00"/><stop offset="77.54%" stop-color="orange"/><stop offset="100%" stop-color="#ff9c00"/></linearGradient><linearGradient id="w" x1="117.7" x2="9.81" y1="105.71" y2="213.6" gradientUnits="userSpaceOnUse"><stop offset="0%" stop-color="#ff3a44"/><stop offset="100%" stop-color="#c31162"/></linearGradient><linearGradient id="y" x1="34.59" x2="82.77" y1=".84" y2="49.02" gradientUnits="userSpaceOnUse"><stop offset="0%" stop-color="#32a071"/><stop offset="6.85%" stop-color="#2da771"/><stop offset="47.62%" stop-color="#15cf74"/><stop offset="80.09%" stop-color="#06e775"/><stop offset="100%" stop-color="#00f076"/></linearGradient><linearGradient id="B" x1="160.4" x2="45.69" y1="94.83" y2="94.83" gradientUnits="userSpaceOnUse"><stop offset="0%" stop-color="#ccb300"/><stop offset="40.87%" stop-color="#cc9700"/><stop offset="77.54%" stop-color="#cc8400"/><stop offset="100%" stop-color="#cc7d00"/></linearGradient><linearGradient id="D" x1="117.7" x2="9.81" y1="105.71" y2="213.6" gradientUnits="userSpaceOnUse"><stop offset="0%" stop-color="#cc2e36"/><stop offset="100%" stop-color="#9c0e4e"/></linearGradient><linearGradient id="G" x1="103.35" x2="23.79" y1="41.29" y2="120.86" gradientUnits="userSpaceOnUse"><stop offset="0%" stop-color="#008de0"/><stop offset=".657%" stop-color="#008de0"/><stop offset="26.01%" stop-color="#00a7e0"/><stop offset="51.22%" stop-color="#00b8e0"/><stop offset="76.04%" stop-color="#00c4e0"/><stop offset="100%" stop-color="#00c7e0"/></linearGradient><linearGradient id="I" x1="117.7" x2="9.81" y1="105.71" y2="213.6" gradientUnits="userSpaceOnUse"><stop offset="0%" stop-color="#e0333c"/><stop offset="100%" stop-color="#ab0f56"/></linearGradient><linearGradient id="L" x1="160.4" x2="45.69" y1="94.83" y2="94.83" gradientUnits="userSpaceOnUse"><stop offset="0%" stop-color="#e0c500"/><stop offset="40.87%" stop-color="#e0a600"/><stop offset="77.54%" stop-color="#e09100"/><stop offset="100%" stop-color="#e08900"/></linearGradient><linearGradient id="O" x1="160.4" x2="45.69" y1="94.83" y2="94.83" gradientUnits="userSpaceOnUse"><stop offset="0%" stop-color="#ffe840"/><stop offset="40.87%" stop-color="#ffce40"/><stop offset="77.54%" stop-color="#ffbc40"/><stop offset="100%" stop-color="#ffb540"/></linearGradient><linearGradient id="R" x1="103.35" x2="23.79" y1="41.29" y2="120.86" gradientUnits="userSpaceOnUse"><stop offset="0%" stop-color="#40b8ff"/><stop offset=".657%" stop-color="#40b9ff"/><stop offset="26.01%" stop-color="#40ceff"/><stop offset="51.22%" stop-color="#40ddff"/><stop offset="76.04%" stop-color="#40e7ff"/><stop offset="100%" stop-color="#40eaff"/></linearGradient><linearGradient id="U" x1="34.59" x2="82.77" y1=".84" y2="49.02" gradientUnits="userSpaceOnUse"><stop offset="0%" stop-color="#65b895"/><stop offset="6.85%" stop-color="#62bd95"/><stop offset="47.62%" stop-color="#50db97"/><stop offset="80.09%" stop-color="#44ed98"/><stop offset="100%" stop-color="#40f498"/></linearGradient></defs><use fill="#202026" xlink:href="#a"/><use fill-opacity="0" stroke="#000" stroke-opacity="0" xlink:href="#a"/><use fill="#36373a" xlink:href="#b"/><use fill-opacity="0" stroke="#000" stroke-opacity="0" xlink:href="#b"/><use fill="#fff" xlink:href="#c"/><use fill-opacity="0" stroke="#000" stroke-opacity="0" xlink:href="#c"/><use fill="#fff" xlink:href="#d"/><use fill-opacity="0" stroke="#000" stroke-opacity="0" xlink:href="#d"/><use fill="#fff" xlink:href="#e"/><use fill-opacity="0" stroke="#000" stroke-opacity="0" xlink:href="#e"/><use fill="#fff" xlink:href="#f"/><use fill-opacity="0" stroke="#000" stroke-opacity="0" xlink:href="#f"/><use fill="#fff" xlink:href="#g"/><use fill-opacity="0" stroke="#000" stroke-opacity="0" xlink:href="#g"/><use fill="#fff" xlink:href="#h"/><use fill-opacity="0" stroke="#000" stroke-opacity="0" xlink:href="#h"/><use fill="#fff" xlink:href="#i"/><use fill-opacity="0" stroke="#000" stroke-opacity="0" xlink:href="#i"/><use fill="#fff" xlink:href="#j"/><use fill-opacity="0" stroke="#000" stroke-opacity="0" xlink:href="#j"/><use fill="#fff" xlink:href="#k"/><use fill-opacity="0" stroke="#000" stroke-opacity="0" xlink:href="#k"/><use fill="#fff" xlink:href="#l"/><use fill-opacity="0" stroke="#000" stroke-opacity="0" xlink:href="#l"/><use fill="#fff" xlink:href="#m"/><use fill-opacity="0" stroke="#000" stroke-opacity="0" xlink:href="#m"/><use fill="#fff" xlink:href="#n"/><use fill-opacity="0" stroke="#000" stroke-opacity="0" xlink:href="#n"/><use fill="#fff" xlink:href="#o"/><use fill-opacity="0" stroke="#000" stroke-opacity="0" xlink:href="#o"/><use fill="#fff" xlink:href="#p"/><use fill-opacity="0" stroke="#000" stroke-opacity="0" xlink:href="#p"/><use fill="#fff" xlink:href="#q"/><use fill-opacity="0" stroke="#000" stroke-opacity="0" xlink:href="#q"/><use fill="url(#s)" xlink:href="#r"/><use fill-opacity="0" stroke="#000" stroke-opacity="0" xlink:href="#r"/><g><use fill="url(#u)" xlink:href="#t"/><use fill-opacity="0" stroke="#000" stroke-opacity="0" xlink:href="#t"/></g><g><use fill="url(#w)" xlink:href="#v"/><use fill-opacity="0" stroke="#000" stroke-opacity="0" xlink:href="#v"/></g><g><use fill="url(#y)" xlink:href="#x"/><use fill-opacity="0" stroke="#000" stroke-opacity="0" xlink:href="#x"/></g><g><use xlink:href="#z"/><use fill-opacity="0" stroke="#000" stroke-opacity="0" xlink:href="#z"/></g><g><use fill="url(#B)" xlink:href="#A"/><use fill-opacity="0" stroke="#000" stroke-opacity="0" xlink:href="#A"/></g><g><use fill="url(#D)" xlink:href="#C"/><use fill-opacity="0" stroke="#000" stroke-opacity="0" xlink:href="#C"/></g><g><use xlink:href="#E"/><use fill-opacity="0" stroke="#000" stroke-opacity="0" xlink:href="#E"/></g><g><use fill="url(#G)" xlink:href="#F"/><use fill-opacity="0" stroke="#000" stroke-opacity="0" xlink:href="#F"/></g><g><use fill="url(#I)" xlink:href="#H"/><use fill-opacity="0" stroke="#000" stroke-opacity="0" xlink:href="#H"/></g><g><use xlink:href="#J"/><use fill-opacity="0" stroke="#000" stroke-opacity="0" xlink:href="#J"/></g><g><use fill="url(#L)" xlink:href="#K"/><use fill-opacity="0" stroke="#000" stroke-opacity="0" xlink:href="#K"/></g><g><use fill="#404040" xlink:href="#M"/><use fill-opacity="0" stroke="#000" stroke-opacity="0" xlink:href="#M"/></g><g><use fill="url(#O)" xlink:href="#N"/><use fill-opacity="0" stroke="#000" stroke-opacity="0" xlink:href="#N"/></g><g><use fill="#404040" xlink:href="#P"/><use fill-opacity="0" stroke="#000" stroke-opacity="0" xlink:href="#P"/></g><g><use fill="url(#R)" xlink:href="#Q"/><use fill-opacity="0" stroke="#000" stroke-opacity="0" xlink:href="#Q"/></g><g><use fill="#404040" xlink:href="#S"/><use fill-opacity="0" stroke="#000" stroke-opacity="0" xlink:href="#S"/></g><g><use fill="url(#U)" xlink:href="#T"/><use fill-opacity="0" stroke="#000" stroke-opacity="0" xlink:href="#T"/></g></svg>
